<svg xmlns="http://www.w3.org/2000/svg" viewBox="0 0 256 256" width="256" height="256"><defs></defs><g transform="matrix(1,0,0,1,0,0)">
<rect fill="#fefefe" fill-opacity="0" x="0" y="0" width="256" height="256"/>
<g>
	<g>
		<path d="M-0.00000000000005684341886080802,11.999999999999957 C-0.00000000000005684341886080802,5.378582666651795 5.378582666651781,-0.00000000000004263256414560601 11.999999999999943,-0.00000000000004263256414560601 L243.99999999999994,-0.00000000000004263256414560601 C250.62141733334812,-0.00000000000004263256414560601 255.99999999999994,5.378582666651795 255.99999999999994,11.999999999999957 L255.99999999999994,243.99999999999994 C255.99999999999994,250.62141733334812 250.62141733334812,255.99999999999994 243.99999999999994,255.99999999999994 L11.999999999999943,255.99999999999994 C5.378582666651781,255.99999999999994 -0.00000000000005684341886080802,250.62141733334812 -0.00000000000005684341886080802,243.99999999999994 L-0.00000000000005684341886080802,11.999999999999957 Z" fill="#edc22e"/>
	</g>
	<g>
		<path d="M67.5062484741211,158.80001831054688 C67.5062484741211,158.80001831054688 17.599998474121094,158.80001831054688 17.599998474121094,158.80001831054688 C17.599998474121094,158.80001831054688 17.599998474121094,148.30001831054688 17.599998474121094,148.30001831054688 C17.599998474121094,148.30001831054688 35.506248474121094,130.20626831054688 35.506248474121094,130.20626831054688 Q40.896873474121094,124.59689331054688 44.193748474121094,120.84689331054688 Q47.506248474121094,117.09689331054688 49.006248474121094,114.05001831054688 Q50.506248474121094,111.00314331054688 50.506248474121094,107.50314331054688 Q50.506248474121094,103.20626831054688 48.146873474121094,101.11251831054688 Q45.803123474121094,99.00314331054688 41.803123474121094,99.00314331054688 Q37.693748474121094,99.00314331054688 33.787498474121094,100.90939331054688 Q29.896873474121094,102.80001831054688 25.599998474121094,106.30001831054688 Q17.396873474121094,96.59689331054688 17.396873474121094,96.59689331054688 Q20.506248474121094,93.89376831054688 23.943748474121094,91.59689331054688 Q27.396873474121094,89.30001831054688 31.943748474121094,87.84689331054688 Q36.506248474121094,86.39376831054688 42.896873474121094,86.39376831054688 Q49.896873474121094,86.39376831054688 54.943748474121094,88.95626831054688 Q60.006248474121094,91.50314331054688 62.756248474121094,95.86251831054688 Q65.5062484741211,100.20626831054688 65.5062484741211,105.70626831054688 Q65.5062484741211,111.59689331054688 63.146873474121094,116.50314331054688 Q60.803123474121094,121.39376831054688 56.349998474121094,126.20626831054688 Q51.896873474121094,131.00314331054688 45.599998474121094,136.80001831054688 Q36.396873474121094,145.39376831054688 36.396873474121094,145.39376831054688 C36.396873474121094,145.39376831054688 36.396873474121094,146.09689331054688 36.396873474121094,146.09689331054688 C36.396873474121094,146.09689331054688 67.5062484741211,146.09689331054688 67.5062484741211,146.09689331054688 C67.5062484741211,146.09689331054688 67.5062484741211,158.80001831054688 67.5062484741211,158.80001831054688 ZM124.30000305175781,123.09689331054688 Q124.30000305175781,131.70626831054688 122.94062805175781,138.50314331054688 Q121.59687805175781,145.30001831054688 118.64375305175781,150.05001831054688 Q115.70625305175781,154.80001831054688 110.95625305175781,157.30001831054688 Q106.20625305175781,159.80001831054688 99.30000305175781,159.80001831054688 Q90.70625305175781,159.80001831054688 85.20625305175781,155.40939331054688 Q79.70625305175781,151.00314331054688 77.05000305175781,142.80001831054688 Q74.39375305175781,134.59689331054688 74.39375305175781,123.09689331054688 Q74.39375305175781,111.50314331054688 76.80000305175781,103.30001831054688 Q79.20625305175781,95.09689331054688 84.70625305175781,90.70626831054688 Q90.20625305175781,86.30001831054688 99.30000305175781,86.30001831054688 Q107.89375305175781,86.30001831054688 113.39375305175781,90.65939331054688 Q118.89375305175781,95.00314331054688 121.59687805175781,103.25314331054688 Q124.30000305175781,111.50314331054688 124.30000305175781,123.09689331054688 Q124.30000305175781,123.09689331054688 124.30000305175781,123.09689331054688 ZM89.39375305175781,123.09689331054688 Q89.39375305175781,131.20626831054688 90.30000305175781,136.65939331054688 Q91.20625305175781,142.09689331054688 93.34687805175781,144.84689331054688 Q95.50312805175781,147.59689331054688 99.30000305175781,147.59689331054688 Q103.09687805175781,147.59689331054688 105.23750305175781,144.90939331054688 Q107.39375305175781,142.20626831054688 108.34687805175781,136.75314331054688 Q109.30000305175781,131.30001831054688 109.30000305175781,123.09689331054688 Q109.30000305175781,114.89376831054688 108.34687805175781,109.45626831054688 Q107.39375305175781,104.00314331054688 105.23750305175781,101.25314331054688 Q103.09687805175781,98.50314331054688 99.30000305175781,98.50314331054688 Q95.50312805175781,98.50314331054688 93.34687805175781,101.25314331054688 Q91.20625305175781,104.00314331054688 90.30000305175781,109.45626831054688 Q89.39375305175781,114.89376831054688 89.39375305175781,123.09689331054688 Q89.39375305175781,123.09689331054688 89.39375305175781,123.09689331054688 ZM183.5,144.00314331054688 C183.5,144.00314331054688 174.90625,144.00314331054688 174.90625,144.00314331054688 C174.90625,144.00314331054688 174.90625,158.80001831054688 174.90625,158.80001831054688 C174.90625,158.80001831054688 160.203125,158.80001831054688 160.203125,158.80001831054688 C160.203125,158.80001831054688 160.203125,144.00314331054688 160.203125,144.00314331054688 C160.203125,144.00314331054688 129.703125,144.00314331054688 129.703125,144.00314331054688 C129.703125,144.00314331054688 129.703125,133.50314331054688 129.703125,133.50314331054688 C129.703125,133.50314331054688 161,87.39376831054688 161,87.39376831054688 C161,87.39376831054688 174.90625,87.39376831054688 174.90625,87.39376831054688 C174.90625,87.39376831054688 174.90625,132.30001831054688 174.90625,132.30001831054688 C174.90625,132.30001831054688 183.5,132.30001831054688 183.5,132.30001831054688 C183.5,132.30001831054688 183.5,144.00314331054688 183.5,144.00314331054688 ZM160.203125,120.20626831054688 Q160.203125,118.50314331054688 160.25,116.15939331054688 Q160.296875,113.80001831054688 160.390625,111.45626831054688 Q160.5,109.09689331054688 160.59375,107.25314331054688 Q160.703125,105.39376831054688 160.796875,104.70626831054688 Q160.40625,104.70626831054688 160.40625,104.70626831054688 Q159.5,106.70626831054688 158.5,108.61251831054688 Q157.5,110.50314331054688 156.09375,112.50314331054688 Q143,132.30001831054688 143,132.30001831054688 C143,132.30001831054688 160.203125,132.30001831054688 160.203125,132.30001831054688 C160.203125,132.30001831054688 160.203125,120.20626831054688 160.203125,120.20626831054688 ZM213.7937469482422,86.50314331054688 Q219.9968719482422,86.50314331054688 225.1374969482422,88.40939331054688 Q230.2937469482422,90.30001831054688 233.4499969482422,94.09689331054688 Q236.6062469482422,97.89376831054688 236.6062469482422,103.70626831054688 Q236.6062469482422,108.00314331054688 234.9031219482422,111.25314331054688 Q233.1999969482422,114.50314331054688 230.3406219482422,116.90939331054688 Q227.4968719482422,119.30001831054688 223.7937469482422,121.09689331054688 Q227.6062469482422,123.09689331054688 231.0437469482422,125.75314331054688 Q234.4968719482422,128.39376831054688 236.6374969482422,131.95626831054688 Q238.7937469482422,135.50314331054688 238.7937469482422,140.30001831054688 Q238.7937469482422,146.20626831054688 235.6374969482422,150.61251831054688 Q232.4968719482422,155.00314331054688 226.8406219482422,157.40939331054688 Q221.1999969482422,159.80001831054688 213.7937469482422,159.80001831054688 Q205.7937469482422,159.80001831054688 200.1999969482422,157.50314331054688 Q194.6062469482422,155.20626831054688 191.6531219482422,150.90939331054688 Q188.6999969482422,146.59689331054688 188.6999969482422,140.70626831054688 Q188.6999969482422,135.80001831054688 190.5437469482422,132.20626831054688 Q192.4031219482422,128.59689331054688 195.4968719482422,125.95626831054688 Q198.6062469482422,123.30001831054688 202.4031219482422,121.50314331054688 Q199.1999969482422,119.50314331054688 196.5906219482422,116.95626831054688 Q193.9968719482422,114.39376831054688 192.4499969482422,111.14376831054688 Q190.9031219482422,107.89376831054688 190.9031219482422,103.59689331054688 Q190.9031219482422,97.89376831054688 194.0906219482422,94.09689331054688 Q197.2937469482422,90.30001831054688 202.5437469482422,88.40939331054688 Q207.7937469482422,86.50314331054688 213.7937469482422,86.50314331054688 Q213.7937469482422,86.50314331054688 213.7937469482422,86.50314331054688 ZM202.6999969482422,139.80001831054688 Q202.6999969482422,143.70626831054688 205.4499969482422,146.20626831054688 Q208.1999969482422,148.70626831054688 213.6062469482422,148.70626831054688 Q219.1999969482422,148.70626831054688 221.9968719482422,146.30001831054688 Q224.7937469482422,143.89376831054688 224.7937469482422,139.89376831054688 Q224.7937469482422,137.20626831054688 223.1999969482422,135.15939331054688 Q221.6062469482422,133.09689331054688 219.2468719482422,131.45626831054688 Q216.9031219482422,129.80001831054688 214.4031219482422,128.39376831054688 Q213.1062469482422,127.70626831054688 213.1062469482422,127.70626831054688 Q209.9968719482422,129.09689331054688 207.6374969482422,130.90939331054688 Q205.2937469482422,132.70626831054688 203.9968719482422,134.86251831054688 Q202.6999969482422,137.00314331054688 202.6999969482422,139.80001831054688 Q202.6999969482422,139.80001831054688 202.6999969482422,139.80001831054688 ZM213.6999969482422,97.50314331054688 Q209.9968719482422,97.50314331054688 207.5437469482422,99.40939331054688 Q205.1062469482422,101.30001831054688 205.1062469482422,104.80001831054688 Q205.1062469482422,107.20626831054688 206.2937469482422,109.05001831054688 Q207.4968719482422,110.89376831054688 209.4968719482422,112.25314331054688 Q211.4968719482422,113.59689331054688 213.7937469482422,114.80001831054688 Q216.1062469482422,113.70626831054688 218.0437469482422,112.40939331054688 Q219.9968719482422,111.09689331054688 221.1999969482422,109.25314331054688 Q222.4031219482422,107.39376831054688 222.4031219482422,104.80001831054688 Q222.4031219482422,101.30001831054688 219.9499969482422,99.40939331054688 Q217.4968719482422,97.50314331054688 213.6999969482422,97.50314331054688 Q213.6999969482422,97.50314331054688 213.6999969482422,97.50314331054688 Z" fill="#000000"/>
	</g>
</g></g></svg>